<?xml version="1.0" encoding="utf-8"?>
<!-- Generator: Adobe Illustrator 23.0.3, SVG Export Plug-In . SVG Version: 6.00 Build 0)  -->
<svg version="1.1" id="Layer_1" xmlns="http://www.w3.org/2000/svg" xmlns:xlink="http://www.w3.org/1999/xlink" x="0px" y="0px"
	 viewBox="0 0 2776 1024" style="enable-background:new 0 0 2776 1024;" xml:space="preserve">
<style type="text/css">
	.st0{fill:#000C05;}
	.st1{fill:#A9ADAA;stroke:#000000;stroke-width:0.75;stroke-miterlimit:10;}
	.st2{fill:#00A99D;stroke:#000000;stroke-width:0.75;stroke-miterlimit:10;}
	.st3{fill:#00746B;stroke:#000000;stroke-miterlimit:10;}
	.st4{fill:#00746B;}
	.st5{enable-background:new    ;}
	.st6{fill:#808080;}
</style>
<title>Artboard 1</title>
<rect class="st0" width="2776" height="1024"/>
<path class="st1" d="M1321.8,630.2h-19.2c-1.7-3.4-2.6-18.7-3-47.7c-10.7,20.5-34.1,51.1-96.3,51.1c-85.6,0-129.5-65.2-129.5-150
	c0-89,46.8-155.9,134.2-155.9c64.3,0,106.9,33.6,116.3,88.6h-23c-12.8-42.2-42.2-67.3-94.2-67.3c-74.6,0-108.6,57.9-108.6,133.3
	c0,68.2,32.8,129.9,105.7,129.9c74.6,0,95.4-48.6,95.4-114.6v-3.4h-96.3V473h118.4L1321.8,630.2z"/>
<path class="st1" d="M1397.2,526.3c0.4,55,28.1,89,69,89c40,0,53.7-22.6,61.3-40h21.7c-8.9,28.1-31.5,60.1-83.9,60.1
	c-64.8,0-89.9-55.8-89.9-109.9c0-60.9,30.2-113.3,92.4-113.3c65.6,0,86.5,56.7,86.5,96.7c0,6,0,11.9-0.4,17.5L1397.2,526.3z
	 M1532.2,507.6c-0.4-42.2-23.4-75.4-65.2-75.4c-43.9,0-63.9,30.7-68.6,75.4H1532.2z"/>
<path class="st1" d="M1606.3,470.9c0-18.7,0-36.6-0.4-53.7h20.9c0.8,6.8,1.3,34.5,0.8,40.5c9.4-21.7,26.8-45.6,70.7-45.6
	c37.9,0,71.6,21.3,71.6,80.1v138h-21.3V495.6c0-37.9-15.8-62.6-52.8-62.6c-50.7,0-68.2,42.2-68.2,88.6v108.6h-21.3L1606.3,470.9z"/>
<path class="st1" d="M2012.3,523.3c0,59.2-32.8,112-96.3,112c-57.5,0-93.3-47.3-93.3-111.6c0-60.9,33.7-111.6,95.4-111.6
	C1974.8,412.1,2012.3,456.4,2012.3,523.3z M1845.3,523.7c0,50.7,27.3,91.6,72.4,91.6c46,0,72-37.9,72-91.6
	c0-50.3-25.6-91.6-72.8-91.6C1868.3,432.1,1845.3,472.6,1845.3,523.7L1845.3,523.7z"/>
<path class="st1" d="M2033.2,417.3h39.6v-66.5h21.3v66.5h50.7v20h-50.7v138.5c0,23.9,5.1,37.5,25.6,37.5c6.4,0,15.3-0.4,22.1-2.5
	v18.7c-7.2,3-17.5,3.8-26.4,3.8c-27.3,0-42.6-13.6-42.6-47.7V437.3h-39.6L2033.2,417.3z"/>
<path class="st1" d="M2188.3,316.3h21.3v41.3h-21.3V316.3z M2188.3,417.3h21.3v213h-21.3V417.3z"/>
<path class="st1" d="M2290.1,630.2v-193h-36.6v-20h36.6V387c0-35.8,10.2-75,57.9-75c6.4,0,15.8,1.3,20.9,3v20.4
	c-6.4-1.7-16.6-2.5-23-2.5c-25.1,0-34.5,17.9-34.5,55v29.4h46.4v20h-46.4v193L2290.1,630.2z"/>
<path class="st1" d="M2407.2,417.3c43,121.8,61.8,172.1,69,195.1h0.4c8.5-26,25.6-75.4,66.9-195.1h22.1l-80.1,225.4
	c-22.6,63-37.9,77.1-76.3,77.1c-6.6,0-13.1-0.4-19.6-1.3v-21.3c6.4,0.9,12.8,1.3,19.2,1.3c30.7,0,40.5-14.9,56.2-58.8l-81.4-222.4
	L2407.2,417.3L2407.2,417.3z"/>
<g id="Layer_5">
	<ellipse transform="matrix(0.833 -0.5532 0.5532 0.833 -110.6941 417.2777)" class="st2" cx="636" cy="392" rx="11.3" ry="66.7"/>
	
		<ellipse transform="matrix(0.7219 -0.692 0.692 0.7219 -36.5211 576.1024)" class="st2" cx="698.5" cy="333.5" rx="28.8" ry="12.1"/>
	
		<ellipse transform="matrix(0.3706 -0.9288 0.9288 0.3706 222.4085 884.002)" class="st2" cx="763.5" cy="277.9" rx="11.8" ry="67.9"/>
	
		<ellipse transform="matrix(0.8417 -0.5399 0.5399 0.8417 -277.8871 312.5659)" class="st2" cx="394.2" cy="630.2" rx="12.2" ry="67.9"/>
	
		<ellipse transform="matrix(0.4245 -0.9054 0.9054 0.4245 -518.5435 668.5621)" class="st2" cx="266.7" cy="742.2" rx="12.8" ry="68.2"/>
	
		<ellipse transform="matrix(0.7219 -0.692 0.692 0.7219 -383.6747 420.2257)" class="st2" cx="331" cy="687.5" rx="28.8" ry="12.1"/>
	<path class="st3" d="M687.2,369.9c0-0.2,0.1-0.5,0.3-0.6c-0.1-1.4-0.1-2.8,0-4.3c-0.2-3.2-0.3-6.5-0.5-10.1
		c-0.8-14.5-1.3-24-1.4-26.1c-5.6-102.3,17.3-178.5,17.3-178.5c21-66.9,56.5-110.1,54-111.7c-2-1.2-22.5,25.9-38.8,56
		c-5.5,10.1-20.2,38.4-31.4,79.8c-3.8,13.8-8.4,33.7-14,85.4c-3.9,36-6,66.2-7.5,94.3v0.1c0,2.1,0.1,4.3-0.1,6.5c0,0.1,0,0.1,0,0.2
		s0,0.2,0,0.2c0,2,0.5,3.9,0.1,5.9c0.2,1.2,0.1,2.5-0.1,3.7c7.3,1.6,14.7,3,22,4.6C686.9,373.4,687,371.6,687.2,369.9z M684.6,357.4
		c-0.4-0.5-0.4-1.3,0.1-1.7c0.5-0.4,1.2-0.4,1.6,0c0.4,0.5,0.4,1.3-0.1,1.7C685.8,357.9,685.1,357.9,684.6,357.4L684.6,357.4z"/>
	
		<rect x="641.7" y="585.4" transform="matrix(0.4705 -0.8824 0.8824 0.4705 -191.232 890.0325)" class="st4" width="8.6" height="38"/>
	<path class="st3" d="M270.5,982.5c-2.6-1.6,33-44.8,54-111.7c18-57.3,17.7-107.8,17.3-178.5c-0.2-39.8-2.6-72.5-4.6-94.1
		c-0.2-15.5-0.4-31.1-0.6-46.6c-0.5-20.6,0.5-41.3,2.9-61.8c2.3-19.2,4.2-34,10.7-53.1c4.9-14.2,11.3-27.9,19.2-40.7
		c21-36.4,55-63.5,95.2-75.8c19.1-4.5,39.7-8.6,61.6-12.1c20.9-3.4,40.8-5.8,59.6-7.5c17.4-0.3,38.1-0.4,61.2-0.2
		c30,0.3,52.9,0.8,60.2,1.3c52.3,3.3,69.3,4.6,121.5,7.6c19.9,1.1,49.9,2.6,87.1,3.3c9.1,0.3,18.1-0.7,26.9-2.9
		c13-3.3,23.6-9,35.9-15.6c12.1-6.5,17.9-10.6,18.5-9.9c1.2,1.5-13.9,16.2-25,24c-31.4,22-66.6,22-104.5,21.4
		c-62.6-0.9-93.9-1.3-117.2-2.5c-95.3-4.6-156.6-7.1-226.8,13.6c-34.3,10.1-62.4,18.7-90.1,43.6c-49.8,44.6-60.8,108.4-62.9,120.3
		c-1.9,10.5-2.8,29.4-4.8,67c-1.9,36.7-1.3,44.3-2.6,77.2c-2.4,60-7.5,103.2-8.5,112.7c-5.6,51.8-10.3,71.7-14,85.4
		c-11.3,41.4-25.9,69.7-31.4,79.8C293,956.6,272.5,983.7,270.5,982.5z"/>
	<path class="st3" d="M658.6,624.3c7.9-12.8,14.3-26.5,19.2-40.7c7.1-20.6,9-37,10.7-53.1c0.9-7.8,1.6-16.7,2-54.5
		c0.3-20.2,0.3-38.3,0.3-53.9c-1.5-16.4-3.2-39-4.1-66.3c-7.1,1.2-14.1,1.9-21.2,0.5c-0.3,5.2-0.5,10.3-0.8,15.3
		c-5.9,121.7-1.1,117.4-7.4,144.2c-7.2,30.6-19.8,81.7-62.9,120.3c-27.8,24.9-55.8,33.5-90.1,43.6c-70.2,20.7-131.5,18.2-226.8,13.6
		c-23.2-1.1-54.6-1.6-117.1-2.5c-37.9-0.5-73.2-0.6-104.5,21.4c-12.4,8.7-25.5,23.3-25,24c0.4,0.4,7.2-5.5,18.6-12.2
		c5.7-3.3,11.6-6.3,17.7-8.9c14.5-6,30-9.2,45.7-9.5c14.6-0.3,30.1-0.1,46.4,0.6c16.9,0.8,32.9,2,48,3.6c17,1.1,34.2,2.4,51.5,3.7
		c20.9,1.6,41.5,3.3,62,5.2c22.9,0.9,46.3,1.5,69.9,2c5,0.1,14.1,0.8,26.4,0.4c10.5-0.3,21-1.2,31.4-2.7c14-1.2,33.6-3.2,57-6.7
		c28.3-4.2,42.6-6.8,58-11.5C603.6,687.7,637.6,660.6,658.6,624.3L658.6,624.3z"/>
	
		<rect x="666.5" y="353.9" transform="matrix(0.9996 -2.827058e-02 2.827058e-02 0.9996 -9.8223 19.2564)" class="st4" width="19.2" height="6.2"/>
	
		<ellipse transform="matrix(0.5955 -0.8033 0.8033 0.5955 155.0206 748.2465)" class="st2" cx="820.6" cy="220.2" rx="8.7" ry="57.5"/>
	
		<ellipse transform="matrix(0.7488 -0.6628 0.6628 0.7488 -154.2164 494.0563)" class="st2" cx="574.7" cy="450.5" rx="11.7" ry="110.4"/>
	
		<ellipse transform="matrix(0.7219 -0.692 0.692 0.7219 -209.8226 497.5445)" class="st2" cx="514.1" cy="509.8" rx="13.6" ry="126.1"/>
	
		<ellipse transform="matrix(0.7487 -0.6629 0.6629 0.7487 -266.2779 446.6682)" class="st2" cx="456" cy="574.5" rx="12.1" ry="109.3"/>
	
		<ellipse transform="matrix(0.6114 -0.7913 0.7913 0.6114 -556.1939 478.5961)" class="st2" cx="209.2" cy="805.6" rx="9.4" ry="58.6"/>
</g>
<g class="st5">
	<path class="st6" d="M1364.3,897.3l6.4,1.6c-1.4,5.3-3.8,9.3-7.3,12.1c-3.5,2.8-7.8,4.2-12.9,4.2c-5.2,0-9.5-1.1-12.8-3.2
		c-3.3-2.1-5.8-5.2-7.5-9.3c-1.7-4.1-2.6-8.4-2.6-13c0-5.1,1-9.5,2.9-13.3c1.9-3.8,4.7-6.6,8.3-8.6c3.6-2,7.5-2.9,11.8-2.9
		c4.9,0,9,1.2,12.3,3.7s5.6,6,6.9,10.5l-6.3,1.5c-1.1-3.5-2.8-6.1-4.9-7.7c-2.1-1.6-4.8-2.4-8.1-2.4c-3.7,0-6.9,0.9-9.4,2.7
		c-2.5,1.8-4.3,4.2-5.3,7.2c-1,3-1.5,6.1-1.5,9.3c0,4.1,0.6,7.8,1.8,10.8c1.2,3.1,3.1,5.4,5.6,6.9c2.5,1.5,5.3,2.3,8.3,2.3
		c3.6,0,6.7-1,9.2-3.1C1361.7,904.5,1363.4,901.4,1364.3,897.3z"/>
	<path class="st6" d="M1375.7,896.8c0-6.5,1.8-11.4,5.4-14.5c3-2.6,6.7-3.9,11.1-3.9c4.8,0,8.8,1.6,11.9,4.8
		c3.1,3.2,4.6,7.6,4.6,13.2c0,4.5-0.7,8.1-2,10.7c-1.4,2.6-3.3,4.6-5.9,6.1c-2.6,1.4-5.4,2.2-8.5,2.2c-4.9,0-8.9-1.6-12-4.7
		C1377.2,907.3,1375.7,902.7,1375.7,896.8z M1381.8,896.8c0,4.5,1,7.9,3,10.1c2,2.2,4.4,3.4,7.4,3.4c3,0,5.4-1.1,7.4-3.4
		c2-2.3,3-5.7,3-10.3c0-4.4-1-7.7-3-9.9c-2-2.2-4.4-3.4-7.4-3.4c-3,0-5.5,1.1-7.4,3.4C1382.8,888.9,1381.8,892.3,1381.8,896.8z"/>
	<path class="st6" d="M1415.7,927.9v-48.8h5.4v4.6c1.3-1.8,2.7-3.1,4.3-4c1.6-0.9,3.6-1.3,5.9-1.3c3,0,5.7,0.8,8,2.3
		c2.3,1.5,4,3.7,5.2,6.6c1.2,2.8,1.8,5.9,1.8,9.3c0,3.6-0.6,6.9-1.9,9.7s-3.2,5.1-5.6,6.6c-2.5,1.5-5.1,2.3-7.8,2.3
		c-2,0-3.8-0.4-5.4-1.3c-1.6-0.8-2.9-1.9-3.9-3.2v17.2H1415.7z M1421.2,897c0,4.5,0.9,7.9,2.8,10.1c1.8,2.2,4.1,3.3,6.7,3.3
		c2.7,0,4.9-1.1,6.8-3.4c1.9-2.2,2.8-5.7,2.8-10.4c0-4.5-0.9-7.9-2.8-10.1c-1.8-2.2-4.1-3.4-6.6-3.4c-2.5,0-4.8,1.2-6.8,3.6
		C1422.1,889,1421.2,892.4,1421.2,897z"/>
	<path class="st6" d="M1453.3,928l-0.7-5.6c1.3,0.4,2.4,0.5,3.4,0.5c1.3,0,2.4-0.2,3.2-0.7c0.8-0.4,1.4-1.1,2-1.9
		c0.4-0.6,1-2.1,1.8-4.4c0.1-0.3,0.3-0.8,0.5-1.5l-13.4-35.3h6.4l7.3,20.4c1,2.6,1.8,5.3,2.6,8.2c0.7-2.7,1.5-5.4,2.5-8l7.5-20.6h6
		l-13.4,35.9c-1.4,3.9-2.6,6.5-3.4,8c-1.1,2-2.3,3.4-3.7,4.3c-1.4,0.9-3,1.4-4.9,1.4C1456,928.7,1454.7,928.5,1453.3,928z"/>
	<path class="st6" d="M1487.5,914.4v-35.3h5.4v5.3c1.4-2.5,2.6-4.2,3.8-4.9s2.4-1.2,3.8-1.2c2,0,4.1,0.6,6.1,1.9l-2.1,5.5
		c-1.5-0.9-2.9-1.3-4.4-1.3c-1.3,0-2.5,0.4-3.5,1.2c-1,0.8-1.8,1.9-2.2,3.3c-0.7,2.1-1,4.4-1,7v18.5H1487.5z"/>
	<path class="st6" d="M1510.2,872.6v-6.9h6v6.9H1510.2z M1510.2,914.4v-35.3h6v35.3H1510.2z"/>
	<path class="st6" d="M1524.2,917.3l5.8,0.9c0.2,1.8,0.9,3.1,2,3.9c1.5,1.1,3.5,1.7,6.1,1.7c2.8,0,4.9-0.6,6.4-1.7
		c1.5-1.1,2.5-2.7,3.1-4.6c0.3-1.2,0.5-3.8,0.4-7.7c-2.6,3.1-5.9,4.6-9.8,4.6c-4.8,0-8.6-1.7-11.3-5.2s-4-7.7-4-12.6
		c0-3.4,0.6-6.5,1.8-9.3c1.2-2.8,3-5,5.3-6.6c2.3-1.5,5-2.3,8.2-2.3c4.2,0,7.6,1.7,10.3,5v-4.3h5.5v30.5c0,5.5-0.6,9.4-1.7,11.7
		c-1.1,2.3-2.9,4.1-5.3,5.4s-5.4,2-8.9,2c-4.2,0-7.6-0.9-10.2-2.8S1524.1,921.1,1524.2,917.3z M1529.2,896.1c0,4.6,0.9,8,2.8,10.1
		c1.8,2.1,4.1,3.2,6.9,3.2c2.7,0,5-1.1,6.9-3.2c1.9-2.1,2.8-5.4,2.8-9.9c0-4.3-1-7.6-2.9-9.8c-1.9-2.2-4.2-3.3-6.9-3.3
		c-2.7,0-4.9,1.1-6.8,3.2S1529.2,891.9,1529.2,896.1z"/>
	<path class="st6" d="M1563.1,914.4v-48.7h6v17.5c2.8-3.2,6.3-4.8,10.6-4.8c2.6,0,4.9,0.5,6.8,1.5s3.3,2.5,4.1,4.3s1.2,4.4,1.2,7.9
		v22.3h-6v-22.3c0-3-0.6-5.2-1.9-6.5s-3.1-2-5.5-2c-1.8,0-3.4,0.5-5,1.4c-1.6,0.9-2.7,2.2-3.3,3.7s-1,3.7-1,6.5v19.3H1563.1z"/>
	<path class="st6" d="M1614,909.1l0.9,5.3c-1.7,0.4-3.2,0.5-4.5,0.5c-2.2,0-3.9-0.3-5-1s-2-1.6-2.5-2.7c-0.5-1.1-0.7-3.5-0.7-7.1
		v-20.3h-4.4v-4.6h4.4v-8.7l5.9-3.6v12.3h6v4.6h-6v20.6c0,1.7,0.1,2.8,0.3,3.3c0.2,0.5,0.6,0.9,1,1.2c0.5,0.3,1.2,0.4,2,0.4
		C1612,909.3,1612.9,909.2,1614,909.1z"/>
	<path class="st6" d="M1668.5,908.7v5.7h-32.2c0-1.4,0.2-2.8,0.7-4.2c0.8-2.2,2.1-4.3,3.9-6.5c1.8-2.1,4.4-4.6,7.8-7.4
		c5.3-4.3,8.9-7.8,10.7-10.3c1.9-2.5,2.8-4.9,2.8-7.2c0-2.4-0.8-4.4-2.5-6s-3.9-2.4-6.6-2.4c-2.9,0-5.2,0.9-6.9,2.6
		s-2.6,4.1-2.6,7.2l-6.1-0.6c0.4-4.6,2-8.1,4.7-10.5c2.7-2.4,6.4-3.6,11.1-3.6c4.7,0,8.4,1.3,11.1,3.9s4.1,5.8,4.1,9.6
		c0,1.9-0.4,3.9-1.2,5.7s-2.1,3.9-4,5.9c-1.8,2.1-4.9,4.9-9.2,8.6c-3.6,3-5.9,5.1-6.9,6.1c-1,1.1-1.9,2.2-2.5,3.2H1668.5z"/>
	<path class="st6" d="M1674.9,890.4c0-5.8,0.6-10.4,1.8-13.9c1.2-3.5,2.9-6.2,5.3-8.1c2.3-1.9,5.3-2.9,8.8-2.9
		c2.6,0,4.9,0.5,6.9,1.6c2,1.1,3.6,2.6,4.9,4.5c1.3,2,2.3,4.4,3,7.2c0.7,2.8,1.1,6.7,1.1,11.5c0,5.7-0.6,10.3-1.8,13.8
		c-1.2,3.5-2.9,6.2-5.3,8.1c-2.3,1.9-5.3,2.9-8.8,2.9c-4.7,0-8.4-1.7-11.1-5C1676.5,906.1,1674.9,899.5,1674.9,890.4z M1681,890.4
		c0,8,0.9,13.3,2.8,16c1.9,2.6,4.2,4,6.9,4c2.7,0,5.1-1.3,6.9-4c1.9-2.7,2.8-8,2.8-15.9c0-8-0.9-13.3-2.8-16c-1.9-2.6-4.2-4-7-4
		c-2.7,0-4.9,1.2-6.6,3.5C1682.1,876.9,1681,882.4,1681,890.4z"/>
	<path class="st6" d="M1735.2,914.4h-6v-38.1c-1.4,1.4-3.3,2.7-5.7,4.1c-2.3,1.4-4.4,2.4-6.3,3.1v-5.8c3.3-1.6,6.3-3.5,8.8-5.7
		c2.5-2.2,4.3-4.4,5.3-6.5h3.9V914.4z"/>
	<path class="st6" d="M1751.4,903.2l5.7-0.5c0.5,2.7,1.4,4.7,2.8,5.9c1.4,1.2,3.1,1.8,5.3,1.8c1.8,0,3.4-0.4,4.8-1.3
		c1.4-0.8,2.5-2,3.4-3.4c0.9-1.4,1.6-3.3,2.2-5.7s0.9-4.8,0.9-7.3c0-0.3,0-0.7,0-1.2c-1.2,1.9-2.8,3.4-4.9,4.6
		c-2.1,1.2-4.3,1.8-6.7,1.8c-4,0-7.4-1.5-10.2-4.4s-4.2-6.8-4.2-11.6c0-4.9,1.5-8.9,4.4-11.9c2.9-3,6.6-4.5,10.9-4.5
		c3.2,0,6.1,0.9,8.7,2.6s4.6,4.1,6,7.3s2,7.7,2,13.7c0,6.2-0.7,11.2-2,14.9c-1.4,3.7-3.4,6.5-6,8.4c-2.7,1.9-5.8,2.9-9.4,2.9
		c-3.8,0-6.9-1.1-9.3-3.2C1753.4,910,1751.9,907,1751.4,903.2z M1775.9,881.7c0-3.4-0.9-6.2-2.7-8.2s-4-3-6.6-3
		c-2.7,0-5,1.1-6.9,3.3c-2,2.2-3,5-3,8.4c0,3.1,0.9,5.6,2.8,7.6c1.9,1.9,4.2,2.9,6.9,2.9c2.8,0,5-1,6.8-2.9
		C1775,887.8,1775.9,885.1,1775.9,881.7z"/>
	<path class="st6" d="M1809.7,914.4v-48.7h18.4c3.2,0,5.7,0.2,7.4,0.5c2.4,0.4,4.4,1.2,6,2.3c1.6,1.1,2.9,2.7,3.9,4.7
		c1,2,1.5,4.2,1.5,6.6c0,4.1-1.3,7.6-4,10.5c-2.6,2.9-7.4,4.3-14.3,4.3h-12.5v19.8H1809.7z M1816.1,888.9h12.6
		c4.2,0,7.1-0.8,8.9-2.3c1.7-1.5,2.6-3.7,2.6-6.5c0-2-0.5-3.8-1.5-5.2c-1-1.4-2.4-2.4-4.1-2.9c-1.1-0.3-3.1-0.4-6-0.4h-12.5V888.9z"
		/>
	<path class="st6" d="M1877.3,910.1c-2.2,1.9-4.3,3.2-6.4,4c-2,0.8-4.2,1.2-6.6,1.2c-3.9,0-6.9-0.9-8.9-2.8
		c-2.1-1.9-3.1-4.3-3.1-7.3c0-1.7,0.4-3.3,1.2-4.7c0.8-1.4,1.8-2.6,3.1-3.4c1.3-0.9,2.7-1.5,4.3-2c1.2-0.3,2.9-0.6,5.3-0.9
		c4.8-0.6,8.4-1.3,10.7-2.1c0-0.8,0-1.3,0-1.6c0-2.4-0.6-4.2-1.7-5.1c-1.5-1.3-3.8-2-6.8-2c-2.8,0-4.9,0.5-6.2,1.5
		c-1.3,1-2.3,2.7-3,5.2l-5.8-0.8c0.5-2.5,1.4-4.5,2.6-6.1c1.2-1.5,3-2.7,5.3-3.6c2.3-0.8,5-1.2,8-1.2c3,0,5.5,0.4,7.3,1.1
		c1.9,0.7,3.3,1.6,4.2,2.7c0.9,1.1,1.5,2.4,1.9,4.1c0.2,1,0.3,2.9,0.3,5.5v8c0,5.6,0.1,9.1,0.4,10.5c0.3,1.5,0.8,2.9,1.5,4.2h-6.2
		C1877.8,913.2,1877.4,911.7,1877.3,910.1z M1876.8,896.7c-2.2,0.9-5.4,1.6-9.8,2.3c-2.5,0.4-4.2,0.8-5.2,1.2
		c-1,0.4-1.8,1.1-2.4,1.9c-0.6,0.9-0.8,1.8-0.8,2.8c0,1.6,0.6,2.9,1.8,4c1.2,1.1,3,1.6,5.3,1.6c2.3,0,4.3-0.5,6.1-1.5
		c1.8-1,3.1-2.4,4-4.1c0.6-1.3,1-3.3,1-6V896.7z"/>
	<path class="st6" d="M1891.8,928l-0.7-5.6c1.3,0.4,2.4,0.5,3.4,0.5c1.3,0,2.4-0.2,3.2-0.7c0.8-0.4,1.4-1.1,2-1.9
		c0.4-0.6,1-2.1,1.8-4.4c0.1-0.3,0.3-0.8,0.5-1.5l-13.4-35.3h6.4l7.3,20.4c1,2.6,1.8,5.3,2.6,8.2c0.7-2.7,1.5-5.4,2.5-8l7.5-20.6h6
		l-13.4,35.9c-1.4,3.9-2.6,6.5-3.4,8c-1.1,2-2.3,3.4-3.7,4.3c-1.4,0.9-3,1.4-4.9,1.4C1894.5,928.7,1893.2,928.5,1891.8,928z"/>
	<path class="st6" d="M1939.1,909.1l0.9,5.3c-1.7,0.4-3.2,0.5-4.5,0.5c-2.2,0-3.9-0.3-5-1s-2-1.6-2.5-2.7c-0.5-1.1-0.7-3.5-0.7-7.1
		v-20.3h-4.4v-4.6h4.4v-8.7l5.9-3.6v12.3h6v4.6h-6v20.6c0,1.7,0.1,2.8,0.3,3.3c0.2,0.5,0.6,0.9,1,1.2c0.5,0.3,1.2,0.4,2,0.4
		C1937.2,909.3,1938,909.2,1939.1,909.1z"/>
	<path class="st6" d="M1942.7,896.8c0-6.5,1.8-11.4,5.4-14.5c3-2.6,6.7-3.9,11.1-3.9c4.8,0,8.8,1.6,11.9,4.8
		c3.1,3.2,4.6,7.6,4.6,13.2c0,4.5-0.7,8.1-2,10.7c-1.4,2.6-3.3,4.6-5.9,6.1c-2.6,1.4-5.4,2.2-8.5,2.2c-4.9,0-8.9-1.6-12-4.7
		C1944.3,907.3,1942.7,902.7,1942.7,896.8z M1948.9,896.8c0,4.5,1,7.9,3,10.1c2,2.2,4.4,3.4,7.4,3.4c3,0,5.4-1.1,7.4-3.4
		c2-2.3,3-5.7,3-10.3c0-4.4-1-7.7-3-9.9c-2-2.2-4.4-3.4-7.4-3.4c-3,0-5.5,1.1-7.4,3.4C1949.9,888.9,1948.9,892.3,1948.9,896.8z"/>
	<path class="st6" d="M1982.8,914.4v-35.3h5.4v5c2.6-3.9,6.3-5.8,11.2-5.8c2.1,0,4.1,0.4,5.9,1.1c1.8,0.8,3.1,1.8,4,3
		c0.9,1.2,1.5,2.7,1.9,4.4c0.2,1.1,0.3,3,0.3,5.8v21.7h-6V893c0-2.4-0.2-4.3-0.7-5.5c-0.5-1.2-1.3-2.2-2.5-2.9
		c-1.2-0.7-2.6-1.1-4.2-1.1c-2.5,0-4.7,0.8-6.6,2.4c-1.8,1.6-2.8,4.7-2.8,9.2v19.3H1982.8z"/>
	<path class="st6" d="M2040,914.4v-48.7h6.4v42.9h24v5.7H2040z"/>
	<path class="st6" d="M2100.3,910.1c-2.2,1.9-4.3,3.2-6.4,4c-2,0.8-4.2,1.2-6.6,1.2c-3.9,0-6.9-0.9-8.9-2.8
		c-2.1-1.9-3.1-4.3-3.1-7.3c0-1.7,0.4-3.3,1.2-4.7c0.8-1.4,1.8-2.6,3.1-3.4c1.3-0.9,2.7-1.5,4.3-2c1.2-0.3,2.9-0.6,5.3-0.9
		c4.8-0.6,8.4-1.3,10.7-2.1c0-0.8,0-1.3,0-1.6c0-2.4-0.6-4.2-1.7-5.1c-1.5-1.3-3.8-2-6.8-2c-2.8,0-4.9,0.5-6.2,1.5
		c-1.3,1-2.3,2.7-3,5.2l-5.8-0.8c0.5-2.5,1.4-4.5,2.6-6.1c1.2-1.5,3-2.7,5.3-3.6c2.3-0.8,5-1.2,8-1.2c3,0,5.5,0.4,7.3,1.1
		c1.9,0.7,3.3,1.6,4.2,2.7c0.9,1.1,1.5,2.4,1.9,4.1c0.2,1,0.3,2.9,0.3,5.5v8c0,5.6,0.1,9.1,0.4,10.5c0.3,1.5,0.8,2.9,1.5,4.2h-6.2
		C2100.9,913.2,2100.5,911.7,2100.3,910.1z M2099.8,896.7c-2.2,0.9-5.4,1.6-9.8,2.3c-2.5,0.4-4.2,0.8-5.2,1.2
		c-1,0.4-1.8,1.1-2.4,1.9c-0.6,0.9-0.8,1.8-0.8,2.8c0,1.6,0.6,2.9,1.8,4c1.2,1.1,3,1.6,5.3,1.6c2.3,0,4.3-0.5,6.1-1.5
		c1.8-1,3.1-2.4,4-4.1c0.6-1.3,1-3.3,1-6V896.7z"/>
	<path class="st6" d="M2120.6,914.4h-5.5v-48.7h6v17.4c2.5-3.2,5.7-4.7,9.7-4.7c2.2,0,4.2,0.4,6.2,1.3c1.9,0.9,3.5,2.1,4.8,3.7
		c1.3,1.6,2.2,3.5,2.9,5.7c0.7,2.2,1.1,4.6,1.1,7.2c0,6-1.5,10.7-4.5,14s-6.6,4.9-10.8,4.9c-4.2,0-7.4-1.7-9.8-5.2V914.4z
		 M2120.6,896.5c0,4.2,0.6,7.3,1.7,9.2c1.9,3.1,4.4,4.6,7.6,4.6c2.6,0,4.9-1.1,6.8-3.4c1.9-2.3,2.9-5.6,2.9-10.1
		c0-4.6-0.9-8-2.7-10.2s-4-3.3-6.6-3.3c-2.6,0-4.9,1.1-6.8,3.4C2121.5,888.9,2120.6,892.2,2120.6,896.5z"/>
</g>
</svg>
