<svg xmlns="http://www.w3.org/2000/svg" viewBox="0 0 2776 1024"><defs><style>.cls-1{fill:none;}.cls-2{fill:#000c05;}.cls-3{fill:#a9adaa;}.cls-3,.cls-4,.cls-5{stroke:#000;stroke-miterlimit:10;}.cls-3,.cls-4{stroke-width:0.75px;}.cls-4{fill:#00a99d;}.cls-5,.cls-6{fill:#00746b;}</style></defs><title>Artboard 1</title><g id="Layer_1" data-name="Layer 1"><path class="cls-1" d="M441,240.5a100,100,0,0,0,100,100"/><path class="cls-1" d="M541,340.5c0-63,37.12-114,83-114"/><rect class="cls-2" x="-232" y="-57.5" width="3008" height="1152"/><path class="cls-3" d="M1321.79,630.24h-19.17c-1.71-3.41-2.56-18.74-3-47.71-10.65,20.45-34.08,51.12-96.27,51.12-85.63,0-129.5-65.18-129.5-149.95,0-89,46.85-155.91,134.18-155.91,64.33,0,106.93,33.65,116.3,88.6h-23c-12.78-42.17-42.18-67.3-94.15-67.3-74.55,0-108.63,57.93-108.63,133.33,0,68.16,32.81,129.93,105.65,129.93,74.55,0,95.42-48.56,95.42-114.59v-3.41h-96.27v-21.3h118.43Z"/><path class="cls-3" d="M1397.18,526.3c.43,55,28.12,89,69,89,40,0,53.68-22.58,61.35-40h21.72c-8.94,28.11-31.52,60.06-83.92,60.06-64.75,0-89.88-55.8-89.88-109.9,0-60.92,30.24-113.32,92.44-113.32,65.6,0,86.48,56.66,86.48,96.7,0,6,0,11.93-.43,17.47Zm135-18.74c-.42-42.18-23.43-75.41-65.17-75.41-43.88,0-63.9,30.68-68.59,75.41Z"/><path class="cls-3" d="M1606.35,470.92c0-18.74,0-36.64-.43-53.67h20.88c.85,6.81,1.27,34.5.85,40.46,9.37-21.72,26.84-45.58,70.71-45.58,37.92,0,71.57,21.3,71.57,80.09v138h-21.3V495.63c0-37.92-15.76-62.62-52.82-62.62-50.7,0-68.16,42.17-68.16,88.6V630.24h-21.3Z"/><path class="cls-3" d="M2012.32,523.32c0,59.21-32.8,112-96.28,112-57.5,0-93.29-47.28-93.29-111.61,0-60.91,33.66-111.61,95.42-111.61C1974.83,412.13,2012.32,456.44,2012.32,523.32Zm-167,.42c0,50.7,27.26,91.59,72.42,91.59,46,0,72-37.91,72-91.59,0-50.26-25.56-91.59-72.84-91.59C1868.33,432.15,1845.33,472.62,1845.33,523.74Z"/><path class="cls-3" d="M2033.19,417.25h39.62V350.79h21.3v66.46h50.69v20h-50.69V575.71c0,23.86,5.11,37.49,25.56,37.49,6.39,0,15.34-.42,22.15-2.55v18.74c-7.24,3-17.46,3.83-26.41,3.83-27.26,0-42.6-13.63-42.6-47.71V437.27h-39.62Z"/><path class="cls-3" d="M2188.25,316.28h21.3v41.33h-21.3Zm0,101h21.3v213h-21.3Z"/><path class="cls-3" d="M2290.06,630.24v-193h-36.64v-20h36.64V387c0-35.78,10.22-75,57.93-75,6.39,0,15.76,1.28,20.88,3v20.44c-6.39-1.7-16.62-2.55-23-2.55-25.13,0-34.5,17.89-34.5,55v29.4h46.43v20h-46.43v193Z"/><path class="cls-3" d="M2407.2,417.25c43,121.83,61.77,172.1,69,195.1h.43c8.52-26,25.56-75.4,66.88-195.1h22.15L2485.58,642.6c-22.58,63-37.91,77.1-76.25,77.1a140.81,140.81,0,0,1-19.6-1.28v-21.3a139,139,0,0,0,19.17,1.28c30.67,0,40.47-14.91,56.23-58.79l-81.36-222.36Z"/><path class="cls-3" d="M1403.08,913c-2.38,8-8.29,14-18.94,14-14.47,0-22.11-11.53-22.11-25.71,0-13.61,7.49-26,22.18-26,10.87,0,17.28,6,18.94,14.47h-3.89C1397,883.3,1392.71,879,1384,879c-12.53,0-17.78,11.44-17.78,22.32s5.18,22.18,18.07,22.18c8.21,0,12.39-4.25,14.91-10.44Z"/><path class="cls-3" d="M1441.74,908.43c0,10-5.55,18.93-16.28,18.93-9.72,0-15.76-8-15.76-18.86,0-10.3,5.68-18.87,16.12-18.87C1435.4,889.63,1441.74,897.12,1441.74,908.43Zm-28.23.07c0,8.57,4.61,15.48,12.24,15.48s12.17-6.41,12.17-15.48c0-8.5-4.32-15.48-12.31-15.48C1417.4,893,1413.51,899.86,1413.51,908.5Z"/><path class="cls-3" d="M1454.26,921.17V940.9h-3.6V899.35c0-3,0-6.12-.07-8.85h3.53c.14,1.37.14,3.53.14,6.48,2.24-4.32,6.2-7.35,12.68-7.35,8.49,0,14.4,7.13,14.4,17.93,0,13-6.92,19.8-15.63,19.8C1459.38,927.36,1456.06,924.56,1454.26,921.17Zm23.26-13.46c0-8.36-4-14.62-11.16-14.62-8.71,0-12.31,5.47-12.31,15.26s2.8,15.63,11.81,15.63C1473.34,924,1477.52,917.64,1477.52,907.71Z"/><path class="cls-3" d="M1490,890.5c7.28,20.59,10.45,29.09,11.67,33h.07c1.44-4.4,4.32-12.75,11.31-33h3.74l-13.54,38.09c-3.81,10.66-6.41,13-12.89,13a24.68,24.68,0,0,1-3.31-.21V937.8a22.79,22.79,0,0,0,3.24.22c5.19,0,6.84-2.52,9.51-9.94l-13.76-37.58Z"/><path class="cls-3" d="M1524.46,900.29c0-6-.07-8.64-.07-9.79h3.53c.07,1.15.14,3.45.14,8.06a13.65,13.65,0,0,1,12.53-8.93v3.89c-7.49.51-12.53,5.69-12.53,14.26V926.5h-3.6Z"/><path class="cls-3" d="M1547.21,873.43h3.6v7h-3.6Zm0,17.07h3.6v36h-3.6Z"/><path class="cls-3" d="M1590.13,924.05c0,11.52-5.12,17.57-15.56,17.57-9.36,0-13.25-5.25-14.11-10.73h3.67c1.3,5,5.4,7.35,10.59,7.35,9.36,0,12-6,12-15.2V919.3c-2,4.68-5.47,7.2-12,7.2-8.42,0-14.9-6.84-14.9-18,0-12.1,6.91-18.87,15.41-18.87,7.34,0,10.51,3.46,11.52,6.34.07-2.09.14-4.61.21-5.47h3.39c0,1.29-.14,7-.14,10.44Zm-26.58-15.7c0,8.57,4.54,14.77,11.45,14.77,9,0,11.74-6,11.74-15.34S1583.86,893,1575.22,893C1566.94,893,1563.55,900.15,1563.55,908.35Z"/><path class="cls-3" d="M1605.53,873.43v23.11c2-3.74,5.54-6.91,11.88-6.91,5.11,0,12.17,2.59,12.17,14v22.9H1626V904.32c0-7.13-3.24-11.16-9.22-11.16-7.13,0-11.23,4.39-11.23,13.25V926.5h-3.6V873.43Z"/><path class="cls-3" d="M1635.77,890.5h6.7V879.26h3.6V890.5h8.57v3.38h-8.57v23.4c0,4,.86,6.34,4.32,6.34a13.57,13.57,0,0,0,3.74-.43v3.17a12.71,12.71,0,0,1-4.46.64c-4.61,0-7.2-2.3-7.2-8.06V893.88h-6.7Z"/><path class="cls-3" d="M1678.18,926.5v-.22c0-5.9,5-13.24,14.47-20.59,8.21-6.41,10.3-8.35,10.3-14.33,0-5.18-2.88-9.65-9.72-9.65-6.48,0-9.87,3.1-11.09,10h-3.68c.94-7.92,5.91-13.46,14.77-13.46,9.57,0,13.68,6.55,13.68,12.88,0,7.35-3.1,9.8-11.88,17-7,5.69-11.24,10.22-12.68,14.83h26.5l-.65,3.53Z"/><path class="cls-3" d="M1746.51,902.45c0,10.87-2.81,24.91-15.49,24.91-12.31,0-15.4-12.89-15.4-24.55s3.31-24.55,15.62-24.55S1746.51,891.22,1746.51,902.45Zm-26.86.43c0,9.22,1.94,21,11.37,21,9.65,0,11.52-11.31,11.52-21.46,0-9.07-1.87-20.74-11.23-20.74C1721.52,881.71,1719.65,892.37,1719.65,902.88Z"/><path class="cls-3" d="M1763.64,926.5V883.66A32.21,32.21,0,0,1,1753,889.2v-3.38a39.28,39.28,0,0,0,11.31-7.06h3.09V926.5Z"/><path class="cls-3" d="M1778.61,913.25c0-7.13,4.68-11.09,9.15-12.67-4.47-1.87-7.06-5.47-7.06-10.16,0-6.84,4.68-12.16,13.83-12.16,8.35,0,13.18,5.32,13.18,12.09a10.32,10.32,0,0,1-7,10.08c5.18,1.59,8.93,6.34,8.93,12.68,0,8.57-6.48,14.25-15.7,14.25C1785.09,927.36,1778.61,921.68,1778.61,913.25Zm27.15-.14c0-6.92-4.25-10.73-11.59-10.73-8.14,0-11.67,4.75-11.67,10.73s4.11,10.87,11.6,10.87C1801,924,1805.76,920.09,1805.76,913.11Zm-21.17-22.9c0,4.54,2.74,8.71,9.87,8.71,6.62,0,9.36-3.46,9.36-8.42,0-4.54-2.81-8.86-9.51-8.86C1787.18,881.64,1784.59,885.38,1784.59,890.21Z"/><path class="cls-3" d="M1839,876.1h18c9.22,0,15.55,5.11,15.55,14s-6.26,14.4-16,14.4h-13.54v22h-4Zm4,24.84h13.9c8.13,0,11.52-4.32,11.52-10.66,0-6.77-4.47-10.58-11.24-10.58h-14.18Z"/><path class="cls-3" d="M1904.47,919.66a40.48,40.48,0,0,0,.51,6.84h-3.46a23.82,23.82,0,0,1-.65-5.54c-1.22,2.66-4.39,6.4-11.81,6.4-8.35,0-12-5.4-12-10.8,0-7.92,6.12-11.52,16.92-11.52h6.84v-3.67c0-3.6-1.08-8.42-9.29-8.42-7.27,0-8.35,3.81-9.14,6.76h-3.6c.43-4,2.88-10.08,12.81-10.08,8.21,0,12.82,3.46,12.82,11.38Zm-3.53-11.52h-7c-8,0-13,2.09-13,8.28,0,4.54,3.24,7.63,8.28,7.63,10.29,0,11.73-6.84,11.73-14.62Z"/><path class="cls-3" d="M1915.05,890.5c7.28,20.59,10.45,29.09,11.67,33h.07c1.44-4.4,4.32-12.75,11.31-33h3.74l-13.54,38.09c-3.81,10.66-6.41,13-12.89,13a24.68,24.68,0,0,1-3.31-.21V937.8a22.79,22.79,0,0,0,3.24.22c5.19,0,6.84-2.52,9.51-9.94l-13.76-37.58Z"/><path class="cls-3" d="M1945.94,890.5h6.7V879.26h3.6V890.5h8.57v3.38h-8.57v23.4c0,4,.86,6.34,4.32,6.34a13.57,13.57,0,0,0,3.74-.43v3.17a12.71,12.71,0,0,1-4.46.64c-4.61,0-7.2-2.3-7.2-8.06V893.88h-6.7Z"/><path class="cls-3" d="M2000.88,908.43c0,10-5.55,18.93-16.27,18.93-9.72,0-15.77-8-15.77-18.86,0-10.3,5.69-18.87,16.13-18.87C1994.54,889.63,2000.88,897.12,2000.88,908.43Zm-28.23.07c0,8.57,4.61,15.48,12.24,15.48s12.17-6.41,12.17-15.48c0-8.5-4.32-15.48-12.31-15.48C1976.54,893,1972.65,899.86,1972.65,908.5Z"/><path class="cls-3" d="M2009.8,899.57c0-3.17,0-6.19-.07-9.07h3.53c.14,1.15.22,5.83.14,6.84,1.59-3.67,4.54-7.71,12-7.71,6.41,0,12.09,3.6,12.09,13.54V926.5h-3.6V903.75c0-6.41-2.66-10.59-8.93-10.59-8.56,0-11.52,7.13-11.52,15V926.5h-3.6Z"/><path class="cls-3" d="M2069.13,876.1H2073v46.8h27.07l-.72,3.6h-30.24Z"/><path class="cls-3" d="M2132.35,919.66a41.93,41.93,0,0,0,.5,6.84h-3.45a23.24,23.24,0,0,1-.65-5.54c-1.23,2.66-4.39,6.4-11.81,6.4-8.35,0-12-5.4-12-10.8,0-7.92,6.12-11.52,16.92-11.52h6.84v-3.67c0-3.6-1.08-8.42-9.29-8.42-7.27,0-8.35,3.81-9.15,6.76h-3.6c.44-4,2.88-10.08,12.82-10.08,8.21,0,12.82,3.46,12.82,11.38Zm-3.53-11.52h-7.06c-8,0-13,2.09-13,8.28,0,4.54,3.24,7.63,8.28,7.63,10.3,0,11.74-6.84,11.74-14.62Z"/><path class="cls-3" d="M2144.22,873.43h3.61v23.11c1.72-3.59,5.25-6.91,12.31-6.91,8.49,0,14.76,7,14.76,18.08,0,11.37-5.62,19.65-15.7,19.65-6,0-9.5-2.44-11.37-6.55,0,2.31-.08,4.68-.15,5.69h-3.53c.07-4.1.07-8.21.07-12.31Zm26.86,34.35c0-9-4.46-14.76-11.3-14.76-9,0-12.17,6.12-12.17,15.55,0,8.5,2.81,15.41,11.74,15.41C2166.62,924,2171.08,917.93,2171.08,907.78Z"/></g><g id="Layer_5" data-name="Layer 5"><ellipse class="cls-4" cx="636" cy="392.04" rx="11.26" ry="66.74" transform="translate(-110.7 417.32) rotate(-33.59)"/><ellipse class="cls-4" cx="698.45" cy="333.46" rx="28.75" ry="12.06" transform="translate(-36.5 576.12) rotate(-43.79)"/><ellipse class="cls-4" cx="763.42" cy="277.89" rx="11.76" ry="67.89" transform="translate(222.4 883.97) rotate(-68.25)"/><ellipse class="cls-4" cx="394.23" cy="630.24" rx="12.18" ry="67.89" transform="translate(-277.89 312.62) rotate(-32.68)"/><ellipse class="cls-4" cx="266.69" cy="742.18" rx="12.84" ry="68.18" transform="translate(-518.51 668.62) rotate(-64.88)"/><ellipse class="cls-4" cx="331.06" cy="687.4" rx="28.75" ry="12.06" transform="translate(-383.63 420.31) rotate(-43.79)"/><path class="cls-5" d="M687.15,369.85a1.09,1.09,0,0,1,.26-.64q-.09-2.13,0-4.26c-.17-3.2-.35-6.51-.54-10.08-.77-14.48-1.31-24-1.43-26.13-5.59-102.29,17.32-178.5,17.32-178.5,21-66.92,56.54-110.13,54-111.7-2-1.23-22.45,25.88-38.79,56-5.5,10.14-20.15,38.39-31.42,79.8-3.75,13.77-8.4,33.68-14.05,85.43-3.93,36-6,66.21-7.54,94.26a.42.42,0,0,1,0,.12c0,2.15.08,4.31-.1,6.46,0,.06,0,.12,0,.18a.93.93,0,0,1,0,.24c0,2,.51,3.91.1,5.86a12.73,12.73,0,0,1-.06,3.7c7.31,1.6,14.66,3,22,4.56A42.12,42.12,0,0,1,687.15,369.85Zm-2.55-12.41a1.24,1.24,0,0,1,1.79-1.71A1.24,1.24,0,0,1,684.6,357.44Z"/><rect class="cls-6" x="626.97" y="600.11" width="38.03" height="8.58" transform="translate(360.41 -232.88) rotate(28.07)"/><path class="cls-5" d="M270.5,982.46c-2.57-1.57,32.95-44.78,54-111.7,18-57.34,17.72-107.76,17.32-178.5-.23-39.83-2.58-72.48-4.58-94.13q-.33-23.31-.65-46.63a428.52,428.52,0,0,1,2.94-61.78c2.32-19.19,4.16-34,10.74-53.13a206,206,0,0,1,19.22-40.7,166.61,166.61,0,0,1,95.19-75.84c19.14-4.46,39.71-8.58,61.59-12.08,20.92-3.35,40.85-5.77,59.64-7.49,17.44-.27,38.06-.41,61.23-.2,30,.27,52.91.81,60.22,1.26,52.28,3.25,69.35,4.59,121.53,7.56,19.86,1.13,49.89,2.57,87.11,3.29a98.81,98.81,0,0,0,26.88-2.93c13-3.32,23.56-9,35.9-15.57,12.14-6.51,17.87-10.64,18.46-9.85,1.16,1.52-13.89,16.18-25,24-31.38,22-66.59,22-104.54,21.41-62.61-.89-93.91-1.34-117.15-2.46-95.32-4.62-156.63-7.1-226.83,13.58-34.33,10.12-62.38,18.73-90.14,43.59-49.76,44.58-60.8,108.35-62.88,120.25-1.85,10.53-2.83,29.35-4.8,67-1.92,36.65-1.28,44.33-2.61,77.17-2.44,60-7.46,103.16-8.5,112.65-5.65,51.75-10.3,71.66-14.05,85.43-11.27,41.41-25.92,69.66-31.42,79.8C293,956.58,272.51,983.69,270.5,982.46Z"/><path class="cls-5" d="M658.63,624.26a206.1,206.1,0,0,0,19.23-40.71c7.08-20.58,9-37,10.74-53.13.86-7.76,1.57-16.72,2-54.55.25-20.21.3-38.31.25-53.86-1.5-16.35-3.22-39-4.06-66.27-7.09,1.22-14.1,1.91-21.21.53q-.4,7.75-.78,15.34c-5.94,121.69-1.14,117.39-7.41,144.16-7.17,30.6-19.84,81.69-62.89,120.26-27.75,24.86-55.81,33.46-90.13,43.58-70.21,20.69-131.51,18.21-226.83,13.59-23.24-1.13-54.55-1.58-117.15-2.47-37.95-.54-73.16-.59-104.54,21.41-12.4,8.7-25.55,23.33-25,24,.38.43,7.21-5.53,18.64-12.22A154.51,154.51,0,0,1,67.19,715a125.66,125.66,0,0,1,45.68-9.54c14.64-.25,30.12-.1,46.36.61,16.91.75,32.94,2,48,3.64q25.56,1.71,51.53,3.71,31.32,2.42,62,5.17,34.41,1.3,69.94,2c5,.1,14.07.78,26.38.4a288.51,288.51,0,0,0,31.4-2.68c14-1.22,33.64-3.24,57-6.67,28.29-4.16,42.6-6.79,58-11.53a166.61,166.61,0,0,0,95.19-75.84Z"/><rect class="cls-6" x="666.48" y="353.93" width="19.15" height="6.18" transform="translate(-9.82 19.26) rotate(-1.62)"/><ellipse class="cls-4" cx="820.66" cy="220.14" rx="8.66" ry="57.51" transform="translate(155.08 748.3) rotate(-53.45)"/><ellipse class="cls-4" cx="574.72" cy="450.56" rx="11.68" ry="110.38" transform="translate(-154.26 494.04) rotate(-41.51)"/><ellipse class="cls-4" cx="514.11" cy="509.76" rx="13.6" ry="126.14" transform="translate(-209.78 497.58) rotate(-43.79)"/><ellipse class="cls-4" cx="455.95" cy="574.63" rx="12.07" ry="109.28" transform="translate(-266.33 446.58) rotate(-41.52)"/><ellipse class="cls-4" cx="209.21" cy="805.55" rx="9.41" ry="58.58" transform="translate(-556.16 478.62) rotate(-52.31)"/></g></svg>